<svg id="Capa_1" data-name="Capa 1" xmlns="http://www.w3.org/2000/svg" xmlns:xlink="http://www.w3.org/1999/xlink" viewBox="0 0 86.63 73.82"><defs><style>.cls-1,.cls-23{fill:none;}.cls-2{isolation:isolate;}.cls-3{clip-path:url(#clip-path);}.cls-4{clip-path:url(#clip-path-2);}.cls-5{clip-path:url(#clip-path-3);}.cls-6{fill:#a8a8a8;}.cls-7{fill:#a3a3a3;}.cls-8{fill:#9e9e9e;}.cls-9{clip-path:url(#clip-path-4);}.cls-10{clip-path:url(#clip-path-5);}.cls-11{clip-path:url(#clip-path-6);}.cls-12{fill:#858585;}.cls-13{clip-path:url(#clip-path-7);}.cls-14{fill:#b4b4b4;}.cls-15{fill:#828282;}.cls-16{fill:#dfdfdf;}.cls-17{clip-path:url(#clip-path-8);}.cls-18{fill:#8a8a8a;}.cls-19{fill:#8f8f8f;}.cls-20{fill:#949494;}.cls-21{fill:#999;}.cls-22{clip-path:url(#clip-path-9);}.cls-23{stroke:#000;stroke-miterlimit:10;stroke-width:0.5px;}.cls-24{font-size:6px;font-family:MyriadPro-Regular, Myriad Pro;}</style><clipPath id="clip-path" transform="translate(-61.13 -85.05)"><path class="cls-1" d="M145,147.22,92.61,118.7a2.22,2.22,0,0,0,1.78-2.18L146.82,145A2.24,2.24,0,0,1,145,147.22Z"/></clipPath><clipPath id="clip-path-2" transform="translate(-61.13 -85.05)"><path class="cls-1" d="M93.62,86.2,146,114.72a1.66,1.66,0,0,1,.83,1.5L94.44,87.7A1.65,1.65,0,0,0,93.62,86.2Z"/></clipPath><clipPath id="clip-path-3" transform="translate(-61.13 -85.05)"><path class="cls-1" d="M92.67,86a1.52,1.52,0,0,1,1,.16L146,114.72a1.51,1.51,0,0,0-.95-.17Z"/></clipPath><clipPath id="clip-path-4" transform="translate(-61.13 -85.05)"><path class="cls-1" d="M94.1,85.32l52.42,28.52a2.26,2.26,0,0,0-1.42-.25L92.67,85.08A2.29,2.29,0,0,1,94.1,85.32Z"/></clipPath><clipPath id="clip-path-5" transform="translate(-61.13 -85.05)"><path class="cls-1" d="M117.38,150.81,65,122.29a1.51,1.51,0,0,0,1,.16L118.33,151A1.52,1.52,0,0,1,117.38,150.81Z"/></clipPath><clipPath id="clip-path-6" transform="translate(-61.13 -85.05)"><path class="cls-1" d="M117.38,150.81,65,122.29a1.68,1.68,0,0,1-.83-1.52l52.42,28.52A1.69,1.69,0,0,0,117.38,150.81Z"/></clipPath><clipPath id="clip-path-7" transform="translate(-61.13 -85.05)"><path class="cls-1" d="M116.9,151.68,64.48,123.17a2.52,2.52,0,0,1-1.24-2.27l52.42,28.52A2.51,2.51,0,0,0,116.9,151.68Z"/></clipPath><clipPath id="clip-path-8" transform="translate(-61.13 -85.05)"><path class="cls-1" d="M116.61,120.48,64.18,92A2.21,2.21,0,0,1,66,89.79l52.43,28.52A2.19,2.19,0,0,0,116.61,120.48Z"/></clipPath><clipPath id="clip-path-9" transform="translate(-61.13 -85.05)"><path class="cls-1" d="M115.72,120.6,63.29,92.08A3.31,3.31,0,0,1,66,88.83l52.43,28.52A3.3,3.3,0,0,0,115.72,120.6Z"/></clipPath></defs><title>mini</title><g class="cls-2"><g class="cls-2"><g class="cls-3"><g class="cls-2"><path d="M145,147.22,92.61,118.7a1.78,1.78,0,0,0,.51-.16l52.43,28.52a2,2,0,0,1-.52.16" transform="translate(-61.13 -85.05)"/><path d="M145.55,147.06,93.12,118.54a1.64,1.64,0,0,0,.29-.16l52.43,28.52a2.09,2.09,0,0,1-.29.16" transform="translate(-61.13 -85.05)"/><path d="M145.84,146.9,93.41,118.38a1.84,1.84,0,0,0,.22-.17l52.42,28.52-.21.17" transform="translate(-61.13 -85.05)"/><path d="M146.05,146.73,93.63,118.21l.18-.19,52.42,28.52a1.07,1.07,0,0,1-.18.19" transform="translate(-61.13 -85.05)"/><path d="M146.23,146.54,93.81,118a1.56,1.56,0,0,0,.16-.2l52.43,28.52a1.63,1.63,0,0,1-.17.2" transform="translate(-61.13 -85.05)"/><path d="M146.4,146.34,94,117.82l.15-.24,52.42,28.52c0,.08-.09.16-.14.24" transform="translate(-61.13 -85.05)"/><path d="M146.54,146.1,94.12,117.58c0-.1.09-.2.13-.3l52.43,28.52c0,.1-.09.2-.14.3" transform="translate(-61.13 -85.05)"/><path d="M146.68,145.8,94.25,117.28a2.18,2.18,0,0,0,.14-.76L146.82,145a2.43,2.43,0,0,1-.14.76" transform="translate(-61.13 -85.05)"/></g></g></g><polygon points="85.68 59.99 33.26 31.47 33.31 2.65 85.74 31.17 85.68 59.99"/><g class="cls-2"><g class="cls-4"><g class="cls-2"><path d="M146.87,116.22,94.44,87.7a1.65,1.65,0,0,0-.82-1.5L146,114.72a1.66,1.66,0,0,1,.83,1.5" transform="translate(-61.13 -85.05)"/></g></g></g><g class="cls-2"><g class="cls-5"><g class="cls-2"><path class="cls-6" d="M145.09,114.55,92.67,86a1.38,1.38,0,0,1,.61,0l52.43,28.51a1.81,1.81,0,0,0-.62,0" transform="translate(-61.13 -85.05)"/><path class="cls-7" d="M145.71,114.58,93.28,86.07a1.16,1.16,0,0,1,.28.1L146,114.69l-.28-.11" transform="translate(-61.13 -85.05)"/><path class="cls-8" d="M146,114.69,93.56,86.17l.06,0L146,114.72l0,0" transform="translate(-61.13 -85.05)"/></g></g></g><g class="cls-2"><g class="cls-9"><g class="cls-2"><path d="M145.1,113.59,92.67,85.08a2.34,2.34,0,0,1,.92,0L146,113.64a2.56,2.56,0,0,0-.92,0" transform="translate(-61.13 -85.05)"/><path d="M146,113.64,93.59,85.12a2.23,2.23,0,0,1,.43.16l52.42,28.52a1.92,1.92,0,0,0-.42-.16" transform="translate(-61.13 -85.05)"/><path d="M146.44,113.8,94,85.28l.08,0,52.42,28.52-.08,0" transform="translate(-61.13 -85.05)"/></g></g></g><polygon points="57.2 65.92 4.78 37.4 31.48 33.65 83.9 62.17 57.2 65.92"/><g class="cls-2"><g class="cls-10"><g class="cls-2"><path d="M117.38,150.81,65,122.29l.05,0,52.43,28.51-.06,0" transform="translate(-61.13 -85.05)"/><path d="M117.44,150.83,65,122.32l.28.1,52.43,28.52a1.36,1.36,0,0,1-.28-.11" transform="translate(-61.13 -85.05)"/><path d="M117.72,150.94,65.29,122.42a1.6,1.6,0,0,0,.62,0L118.33,151a1.55,1.55,0,0,1-.61,0" transform="translate(-61.13 -85.05)"/></g></g></g><g class="cls-2"><g class="cls-11"><g class="cls-2"><path class="cls-12" d="M117.38,150.81,65,122.29a1.68,1.68,0,0,1-.83-1.52l52.42,28.52a1.69,1.69,0,0,0,.83,1.52" transform="translate(-61.13 -85.05)"/></g></g></g><g class="cls-2"><g class="cls-13"><g class="cls-2"><path d="M116.9,151.68,64.48,123.17a2.52,2.52,0,0,1-1.24-2.27l52.42,28.52a2.51,2.51,0,0,0,1.24,2.26" transform="translate(-61.13 -85.05)"/></g></g></g><polygon class="cls-14" points="57.27 33.26 4.84 4.74 31.54 0.98 83.96 29.5 57.27 33.26"/><polygon points="57.27 32.3 4.84 3.78 31.54 0.03 83.97 28.54 57.27 32.3"/><polygon class="cls-15" points="55.42 64.24 3 35.72 3.05 6.91 55.48 35.42 55.42 64.24"/><path class="cls-16" d="M145.09,114.55a1.58,1.58,0,0,1,1.78,1.67L146.82,145a2.24,2.24,0,0,1-1.79,2.18L118.33,151a1.58,1.58,0,0,1-1.78-1.68l.06-28.81a2.19,2.19,0,0,1,1.79-2.17Z" transform="translate(-61.13 -85.05)"/><g class="cls-2"><g class="cls-17"><g class="cls-2"><path class="cls-12" d="M116.61,120.48,64.18,92a2.18,2.18,0,0,1,.14-.76l52.42,28.52a2.17,2.17,0,0,0-.13.76" transform="translate(-61.13 -85.05)"/><path class="cls-18" d="M116.74,119.72,64.32,91.2a2.55,2.55,0,0,1,.13-.29l52.43,28.51a2,2,0,0,0-.14.3" transform="translate(-61.13 -85.05)"/><path class="cls-19" d="M116.88,119.42,64.45,90.91a1.94,1.94,0,0,1,.15-.24L117,119.19a1.76,1.76,0,0,0-.14.23" transform="translate(-61.13 -85.05)"/><path class="cls-20" d="M117,119.19,64.6,90.67a1.56,1.56,0,0,1,.16-.2L117.18,119a1.56,1.56,0,0,0-.16.2" transform="translate(-61.13 -85.05)"/><path class="cls-21" d="M117.18,119,64.76,90.47a1.07,1.07,0,0,1,.18-.19l52.42,28.52-.18.19" transform="translate(-61.13 -85.05)"/><path class="cls-8" d="M117.36,118.8,64.94,90.28l.21-.17,52.43,28.52a1.84,1.84,0,0,0-.22.17" transform="translate(-61.13 -85.05)"/><path class="cls-7" d="M117.58,118.63,65.15,90.11a1.73,1.73,0,0,1,.3-.16l52.42,28.51-.29.17" transform="translate(-61.13 -85.05)"/><path class="cls-6" d="M117.87,118.46,65.45,90a1.57,1.57,0,0,1,.52-.16l52.43,28.52a1.9,1.9,0,0,0-.53.15" transform="translate(-61.13 -85.05)"/></g></g></g><polygon points="54.53 64.37 2.11 35.85 2.16 7.03 54.59 35.55 54.53 64.37"/><path d="M145.1,113.59a2.36,2.36,0,0,1,2.66,2.51l-.06,28.81a3.31,3.31,0,0,1-2.67,3.27l-26.7,3.75a2.36,2.36,0,0,1-2.67-2.51l.06-28.82a3.3,3.3,0,0,1,2.68-3.25ZM146.82,145l.05-28.82a1.58,1.58,0,0,0-1.78-1.67l-26.69,3.76a2.19,2.19,0,0,0-1.79,2.17l-.06,28.81a1.58,1.58,0,0,0,1.78,1.68l26.7-3.75a2.24,2.24,0,0,0,1.79-2.18" transform="translate(-61.13 -85.05)"/><g class="cls-2"><g class="cls-22"><g class="cls-2"><path d="M115.72,120.6,63.29,92.08A3.33,3.33,0,0,1,63.5,91l52.42,28.52a3.32,3.32,0,0,0-.2,1.13" transform="translate(-61.13 -85.05)"/><path d="M115.92,119.47,63.5,91a2.57,2.57,0,0,1,.2-.45L116.12,119a4.68,4.68,0,0,0-.2.45" transform="translate(-61.13 -85.05)"/><path d="M116.12,119,63.7,90.5a2.56,2.56,0,0,1,.22-.35l52.42,28.52c-.08.11-.15.23-.22.35" transform="translate(-61.13 -85.05)"/><path d="M116.34,118.67,63.92,90.15a1.76,1.76,0,0,1,.24-.3l52.42,28.51a2.34,2.34,0,0,0-.24.31" transform="translate(-61.13 -85.05)"/><path d="M116.58,118.36,64.16,89.85a2.37,2.37,0,0,1,.27-.28l52.42,28.52-.27.27" transform="translate(-61.13 -85.05)"/><path d="M116.85,118.09,64.43,89.57a2.51,2.51,0,0,1,.32-.25l52.42,28.51-.32.26" transform="translate(-61.13 -85.05)"/><path d="M117.17,117.83,64.75,89.32a3.18,3.18,0,0,1,.44-.26l52.42,28.52a3.83,3.83,0,0,0-.44.25" transform="translate(-61.13 -85.05)"/><path d="M117.61,117.58,65.19,89.06a2.93,2.93,0,0,1,.78-.23l52.43,28.52a2.66,2.66,0,0,0-.79.23" transform="translate(-61.13 -85.05)"/></g></g></g></g><line class="cls-23" x1="0.12" y1="39.9" x2="51.62" y2="68"/><line class="cls-23" x1="57.34" y1="69.28" x2="85.33" y2="65.15"/><text class="cls-24" transform="translate(68.28 72.33) rotate(-6.97)">6cm</text><text class="cls-24" transform="translate(16.37 54.47) rotate(29.51)">18cm</text><text x="-61.13" y="-85.05"></text></svg>