<svg id="Capa_1" data-name="Capa 1" xmlns="http://www.w3.org/2000/svg" xmlns:xlink="http://www.w3.org/1999/xlink" viewBox="0 0 58.009 44.126"><defs><clipPath id="clip-path" transform="translate(-82.496 -77.676)"><path d="M84.609,104.065,84.3,84.571c-.048-3.015,9.132-5.807,22.207-6.508,14.677-.787,28.775,1.351,31.442,4.764l.312,19.494c-2.667-3.413-16.765-5.551-31.442-4.764C93.741,98.258,84.561,101.05,84.609,104.065Z" style="fill:none"/></clipPath><clipPath id="clip-path-2" transform="translate(-82.496 -77.676)"><path d="M138.384,83.937l.312,19.494a1.84,1.84,0,0,0-.438-1.11l-.312-19.494A1.852,1.852,0,0,1,138.384,83.937Z" style="fill:none"/></clipPath><clipPath id="clip-path-3" transform="translate(-82.496 -77.676)"><path d="M83.608,104.077,83.3,84.583a1.916,1.916,0,0,0,.455,1.15l.312,19.494A1.918,1.918,0,0,1,83.608,104.077Z" style="fill:none"/></clipPath><clipPath id="clip-path-4" transform="translate(-82.496 -77.676)"><path d="M138.7,103.431c.049,3.015-9.125,5.806-22.206,6.508q-.156-9.747-.313-19.494c13.082-.7,22.256-3.493,22.207-6.508C138.478,89.785,138.6,97.583,138.7,103.431Z" style="fill:none"/></clipPath><clipPath id="clip-path-5" transform="translate(-82.496 -77.676)"><path d="M96.283,109.136c-5.95-.9-9.942-2.306-11.235-3.962l-.313-19.493c1.294,1.655,5.286,3.062,11.236,3.961a103.121,103.121,0,0,0,20.206.8q.156,9.747.313,19.494A103.128,103.128,0,0,1,96.283,109.136Z" style="fill:none"/></clipPath><clipPath id="clip-path-6" transform="translate(-82.496 -77.676)"><path d="M139.394,83.924l.312,19.494c.05,3.124-9.46,6.009-23.047,6.738-15.236.817-29.831-1.391-32.6-4.929l-.312-19.494c2.764,3.539,17.36,5.746,32.6,4.929C129.934,89.933,139.444,87.048,139.394,83.924Z" style="fill:none"/></clipPath></defs><title>big</title><g style="isolation:isolate"><g style="isolation:isolate"><g style="clip-path:url(#clip-path)"><g style="isolation:isolate"><path d="M137.946,82.827l.312,19.494c-.961-1.229-3.4-2.293-6.824-3.115l-.312-19.494c3.419.822,5.863,1.886,6.824,3.115" transform="translate(-82.496 -77.676)"/><path d="M131.122,79.712l.312,19.494q-.95-.228-2-.431l-.312-19.494q1.046.2,2,.431" transform="translate(-82.496 -77.676)"/><path d="M129.125,79.281l.312,19.494q-.828-.16-1.712-.3l-.312-19.494q.884.144,1.712.3" transform="translate(-82.496 -77.676)"/><path d="M127.413,78.977l.312,19.494c-.508-.082-1.029-.161-1.562-.234l-.312-19.494c.533.073,1.054.152,1.562.234" transform="translate(-82.496 -77.676)"/><path d="M125.851,78.743l.312,19.494c-.482-.067-.975-.13-1.476-.19l-.312-19.494c.5.06.994.123,1.476.19" transform="translate(-82.496 -77.676)"/><path d="M124.375,78.553l.312,19.494q-.7-.082-1.426-.156L122.949,78.4q.725.073,1.426.156" transform="translate(-82.496 -77.676)"/><path d="M122.949,78.4l.312,19.494q-.679-.069-1.377-.128l-.312-19.494q.7.059,1.377.128" transform="translate(-82.496 -77.676)"/><path d="M121.572,78.269l.312,19.494q-.669-.059-1.352-.106l-.312-19.494q.683.048,1.352.106" transform="translate(-82.496 -77.676)"/><path d="M120.22,78.163l.312,19.494q-.666-.048-1.346-.087l-.312-19.494c.453.027.9.055,1.346.087" transform="translate(-82.496 -77.676)"/><path d="M118.874,78.076l.312,19.494c-.44-.025-.885-.048-1.332-.068l-.313-19.494q.672.03,1.333.068" transform="translate(-82.496 -77.676)"/><path d="M117.541,78.008l.313,19.494q-.649-.028-1.308-.05l-.312-19.494q.659.021,1.307.05" transform="translate(-82.496 -77.676)"/><path d="M116.234,77.958l.312,19.494q-.645-.021-1.3-.034l-.312-19.494q.652.013,1.3.034" transform="translate(-82.496 -77.676)"/><path d="M114.936,77.924l.312,19.494Q114.627,97.4,114,97.4l-.312-19.494q.627.006,1.247.019" transform="translate(-82.496 -77.676)"/><path d="M113.689,77.905,114,97.4q-.608-.006-1.219,0L112.47,77.9q.612,0,1.219,0" transform="translate(-82.496 -77.676)"/><path d="M112.47,77.9l.312,19.494c-.393,0-.788,0-1.184.007l-.312-19.494c.4,0,.791-.007,1.184-.007" transform="translate(-82.496 -77.676)"/><path d="M111.286,77.907,111.6,97.4c-.392.005-.785.011-1.179.02l-.312-19.494c.394-.009.787-.015,1.179-.02" transform="translate(-82.496 -77.676)"/><path d="M110.107,77.927l.312,19.494q-.588.012-1.179.032l-.312-19.494q.591-.02,1.179-.032" transform="translate(-82.496 -77.676)"/><path d="M108.928,77.959l.312,19.494q-.656.021-1.312.05l-.312-19.494q.657-.03,1.312-.05" transform="translate(-82.496 -77.676)"/><path d="M107.616,78.009l.312,19.494q-.555.024-1.112.054l-.354.019-.313-19.494.355-.019c.371-.02.741-.038,1.112-.054" transform="translate(-82.496 -77.676)"/><path d="M106.149,78.082l.313,19.494q-1.2.069-2.348.159L103.8,78.241q1.15-.09,2.347-.159" transform="translate(-82.496 -77.676)"/><path d="M103.8,78.241l.312,19.494q-1.895.15-3.654.357L100.147,78.6c1.171-.138,2.392-.258,3.655-.358" transform="translate(-82.496 -77.676)"/><path d="M100.147,78.6l.313,19.493q-1.57.186-3.019.412L97.129,79.01c.964-.151,1.972-.288,3.018-.411" transform="translate(-82.496 -77.676)"/><path d="M97.129,79.01,97.441,98.5q-1.267.2-2.433.426L94.7,79.436q1.164-.227,2.433-.426" transform="translate(-82.496 -77.676)"/><path d="M94.7,79.436l.312,19.494q-1.033.2-1.981.424L92.715,79.86q.947-.222,1.981-.424" transform="translate(-82.496 -77.676)"/><path d="M92.715,79.86l.312,19.494q-.816.192-1.564.4l-.312-19.494q.747-.206,1.564-.4" transform="translate(-82.496 -77.676)"/><path d="M91.151,80.257l.312,19.494q-.658.181-1.26.372l-.312-19.494q.6-.191,1.26-.372" transform="translate(-82.496 -77.676)"/><path d="M89.891,80.629l.312,19.494q-.548.174-1.048.356l-.312-19.494q.5-.181,1.048-.356" transform="translate(-82.496 -77.676)"/><path d="M88.843,80.985l.312,19.494q-.467.169-.889.345L87.954,81.33q.422-.176.889-.345" transform="translate(-82.496 -77.676)"/><path d="M87.954,81.33l.312,19.494q-.4.165-.757.336L87.2,81.666q.359-.169.757-.336" transform="translate(-82.496 -77.676)"/><path d="M87.2,81.666l.312,19.494q-.348.165-.656.335L86.541,82q.308-.169.656-.335" transform="translate(-82.496 -77.676)"/><path d="M86.541,82l.312,19.494c-.2.111-.392.224-.568.337l-.312-19.494c.176-.113.365-.226.568-.337" transform="translate(-82.496 -77.676)"/><path d="M85.973,82.338l.312,19.494c-.175.113-.336.226-.484.341l-.312-19.494c.148-.115.309-.228.484-.341" transform="translate(-82.496 -77.676)"/><path d="M85.489,82.679l.312,19.494a4.8,4.8,0,0,0-.406.347l-.312-19.494a4.988,4.988,0,0,1,.406-.347" transform="translate(-82.496 -77.676)"/><path d="M85.083,83.026,85.4,102.52a3.553,3.553,0,0,0-.327.357l-.313-19.493a3.585,3.585,0,0,1,.328-.358" transform="translate(-82.496 -77.676)"/><path d="M84.755,83.384l.313,19.493a2.43,2.43,0,0,0-.246.371L84.51,83.754a2.439,2.439,0,0,1,.245-.37" transform="translate(-82.496 -77.676)"/><path d="M84.51,83.754l.312,19.494a1.888,1.888,0,0,0-.158.387l-.312-19.493a1.873,1.873,0,0,1,.158-.388" transform="translate(-82.496 -77.676)"/><path d="M84.352,84.142l.312,19.493a1.517,1.517,0,0,0-.055.421L84.3,84.562a1.51,1.51,0,0,1,.055-.42" transform="translate(-82.496 -77.676)"/><polyline points="1.801 6.887 2.113 26.381 2.113 26.39 1.801 6.896 1.801 6.887"/></g></g></g><g style="isolation:isolate"><g style="clip-path:url(#clip-path-2)"><g style="isolation:isolate"><path d="M138.384,83.937l.312,19.494a1.84,1.84,0,0,0-.438-1.11l-.312-19.494a1.852,1.852,0,0,1,.438,1.11" transform="translate(-82.496 -77.676)"/></g></g></g><g style="isolation:isolate"><g style="clip-path:url(#clip-path-3)"><g style="isolation:isolate"><path d="M83.751,85.733l.312,19.494a1.918,1.918,0,0,1-.455-1.15L83.3,84.583a1.916,1.916,0,0,0,.455,1.15" transform="translate(-82.496 -77.676)"/></g></g></g><g style="isolation:isolate"><g style="clip-path:url(#clip-path-4)"><g style="isolation:isolate"><polyline points="55.889 6.261 56.201 25.755 56.201 25.764 55.889 6.27 55.889 6.261" style="fill:#949494"/><path d="M138.385,83.946l.312,19.494a1.557,1.557,0,0,1-.056.421l-.312-19.494a1.557,1.557,0,0,0,.056-.421" transform="translate(-82.496 -77.676)" style="fill:#999"/><path d="M138.329,84.367l.312,19.494a1.891,1.891,0,0,1-.157.388l-.312-19.494a1.891,1.891,0,0,0,.157-.388" transform="translate(-82.496 -77.676)" style="fill:#9e9e9e"/><path d="M138.172,84.755l.312,19.494a2.58,2.58,0,0,1-.246.37l-.312-19.494a2.58,2.58,0,0,0,.246-.37" transform="translate(-82.496 -77.676)" style="fill:#a3a3a3"/><path d="M137.926,85.125l.312,19.494a3.687,3.687,0,0,1-.328.358L137.6,85.483a3.687,3.687,0,0,0,.328-.358" transform="translate(-82.496 -77.676)" style="fill:#a8a8a8"/><path d="M137.6,85.483l.312,19.494q-.183.174-.405.347l-.313-19.494a5.194,5.194,0,0,0,.406-.347" transform="translate(-82.496 -77.676)" style="fill:#adadad"/><path d="M137.192,85.83l.313,19.494c-.149.114-.31.228-.484.34l-.312-19.494c.174-.112.335-.226.483-.34" transform="translate(-82.496 -77.676)" style="fill:#b3b3b3"/><path d="M136.709,86.17l.312,19.494q-.266.171-.568.337l-.312-19.494q.3-.167.568-.337" transform="translate(-82.496 -77.676)" style="fill:#b8b8b8"/><path d="M136.141,86.507,136.453,106q-.309.169-.656.335l-.312-19.494q.346-.165.656-.335" transform="translate(-82.496 -77.676)" style="fill:#bdbdbd"/><path d="M135.485,86.842l.312,19.494q-.359.171-.756.336l-.313-19.494q.4-.165.757-.336" transform="translate(-82.496 -77.676)" style="fill:#c2c2c2"/><path d="M134.728,87.178l.313,19.494q-.423.175-.889.345l-.313-19.494q.466-.169.889-.345" transform="translate(-82.496 -77.676)" style="fill:#c7c7c7"/><path d="M133.839,87.523l.313,19.494q-.5.182-1.048.355l-.312-19.494c.365-.115.715-.234,1.047-.355" transform="translate(-82.496 -77.676)" style="fill:#ccc"/><path d="M132.792,87.878l.312,19.494q-.6.192-1.259.372l-.312-19.494q.657-.18,1.259-.372" transform="translate(-82.496 -77.676)" style="fill:#d1d1d1"/><path d="M131.533,88.25l.312,19.494q-.747.206-1.563.4l-.312-19.493q.816-.192,1.563-.4" transform="translate(-82.496 -77.676)" style="fill:#d6d6d6"/><path d="M129.97,88.648l.312,19.493q-.946.224-1.98.424l-.313-19.494q1.033-.2,1.981-.423" transform="translate(-82.496 -77.676)" style="fill:#dbdbdb"/><path d="M127.989,89.071l.313,19.494q-1.164.226-2.43.425L125.559,89.5q1.267-.2,2.43-.426" transform="translate(-82.496 -77.676)" style="fill:#e0e0e0"/><path d="M125.559,89.5l.313,19.493q-1.449.227-3.024.413l-.312-19.494q1.573-.184,3.023-.412" transform="translate(-82.496 -77.676)" style="fill:#e6e6e6"/><path d="M122.536,89.909l.312,19.494q-1.755.207-3.654.357l-.312-19.494q1.9-.15,3.654-.357" transform="translate(-82.496 -77.676)" style="fill:#ebebeb"/><path d="M118.882,90.266l.312,19.494q-1.15.091-2.35.159l-.312-19.494q1.2-.068,2.35-.159" transform="translate(-82.496 -77.676)" style="fill:#e6e6e6"/><path d="M116.532,90.425l.312,19.494-.354.02q-.591.031-1.183.057L115,90.5q.591-.025,1.182-.057l.355-.02" transform="translate(-82.496 -77.676)" style="fill:#e0e0e0"/></g></g></g><path d="M84.735,85.681c-2.666-3.414,7.1-6.832,21.769-7.618s28.775,1.351,31.442,4.764-7.091,6.831-21.769,7.618a103.121,103.121,0,0,1-20.206-.8C90.021,88.743,86.029,87.336,84.735,85.681Z" transform="translate(-82.496 -77.676)" style="fill:#ababab"/><g style="isolation:isolate"><g style="clip-path:url(#clip-path-5)"><g style="isolation:isolate"><path d="M116.532,90.425l.312,19.494-.354.02q-.591.031-1.183.057L115,90.5q.591-.025,1.182-.057l.355-.02" transform="translate(-82.496 -77.676)" style="fill:#e0e0e0"/><path d="M115,90.5,115.307,110q-.632.027-1.263.047l-.312-19.493q.632-.021,1.263-.048" transform="translate(-82.496 -77.676)" style="fill:#dbdbdb"/><path d="M113.732,90.55l.312,19.493q-.6.019-1.193.033l-.312-19.494q.6-.013,1.193-.032" transform="translate(-82.496 -77.676)" style="fill:#d6d6d6"/><path d="M112.539,90.582l.312,19.494c-.391.008-.782.015-1.172.019L111.367,90.6c.39,0,.781-.011,1.172-.019" transform="translate(-82.496 -77.676)" style="fill:#d1d1d1"/><path d="M111.367,90.6l.312,19.494c-.395,0-.79.007-1.183.008l-.312-19.494c.393,0,.788,0,1.183-.008" transform="translate(-82.496 -77.676)" style="fill:#ccc"/><path d="M110.184,90.609,110.5,110.1q-.609,0-1.215,0L108.969,90.6q.606.006,1.215,0" transform="translate(-82.496 -77.676)" style="fill:#c7c7c7"/><path d="M108.969,90.6l.312,19.494q-.627-.006-1.25-.019l-.312-19.494q.623.014,1.25.019" transform="translate(-82.496 -77.676)" style="fill:#c2c2c2"/><path d="M107.719,90.585l.312,19.494q-.645-.014-1.286-.034l-.312-19.494q.64.021,1.286.034" transform="translate(-82.496 -77.676)" style="fill:#bdbdbd"/><path d="M106.433,90.551l.312,19.494q-.657-.021-1.308-.05L105.125,90.5q.651.028,1.308.05" transform="translate(-82.496 -77.676)" style="fill:#b8b8b8"/><path d="M105.125,90.5,105.437,110q-.663-.03-1.319-.067l-.312-19.494q.656.038,1.319.067" transform="translate(-82.496 -77.676)" style="fill:#b3b3b3"/><path d="M103.806,90.434l.312,19.494q-.67-.039-1.331-.086l-.312-19.494q.66.048,1.331.086" transform="translate(-82.496 -77.676)" style="fill:#adadad"/><path d="M102.475,90.348l.312,19.494q-.68-.048-1.348-.105l-.312-19.494q.668.057,1.348.105" transform="translate(-82.496 -77.676)" style="fill:#a8a8a8"/><path d="M101.127,90.243l.312,19.494q-.691-.059-1.37-.128l-.312-19.494q.678.069,1.37.128" transform="translate(-82.496 -77.676)" style="fill:#a3a3a3"/><path d="M99.757,90.115l.312,19.494q-.718-.072-1.42-.155L98.337,89.96q.7.083,1.42.155" transform="translate(-82.496 -77.676)" style="fill:#9e9e9e"/><path d="M98.337,89.96l.312,19.494q-.75-.088-1.479-.19l-.312-19.493q.729.1,1.479.189" transform="translate(-82.496 -77.676)" style="fill:#999"/><path d="M96.858,89.771l.312,19.493q-.447-.061-.887-.128c-.237-.036-.472-.072-.7-.11l-.312-19.494c.231.038.466.074.7.11.293.045.589.087.887.129" transform="translate(-82.496 -77.676)" style="fill:#949494"/><path d="M95.268,89.532l.312,19.494q-.89-.144-1.715-.3l-.312-19.494q.825.159,1.715.3" transform="translate(-82.496 -77.676)" style="fill:#8f8f8f"/><path d="M93.553,89.229l.312,19.494q-1.053-.2-2-.431L91.554,88.8q.945.226,2,.43" transform="translate(-82.496 -77.676)" style="fill:#8a8a8a"/><path d="M91.554,88.8l.312,19.493c-3.51-.841-5.878-1.914-6.818-3.118l-.313-19.493c.941,1.2,3.309,2.276,6.819,3.118" transform="translate(-82.496 -77.676)" style="fill:#858585"/></g></g></g><g style="isolation:isolate"><g style="clip-path:url(#clip-path-6)"><g style="isolation:isolate"><polyline points="56.898 6.249 57.21 25.742 57.21 25.752 56.898 6.258 56.898 6.249"/><path d="M139.394,83.933l.312,19.494a1.589,1.589,0,0,1-.058.436l-.312-19.494a1.584,1.584,0,0,0,.058-.436" transform="translate(-82.496 -77.676)"/><path d="M139.336,84.369l.312,19.494a1.9,1.9,0,0,1-.162.4l-.312-19.494a1.883,1.883,0,0,0,.162-.4" transform="translate(-82.496 -77.676)"/><path d="M139.174,84.77l.312,19.494a2.617,2.617,0,0,1-.254.383l-.313-19.494a2.547,2.547,0,0,0,.255-.383" transform="translate(-82.496 -77.676)"/><path d="M138.919,85.153l.313,19.494a3.818,3.818,0,0,1-.339.37l-.312-19.494a3.68,3.68,0,0,0,.338-.37" transform="translate(-82.496 -77.676)"/><path d="M138.581,85.523l.312,19.494a5.312,5.312,0,0,1-.419.358l-.312-19.493q.23-.178.419-.359" transform="translate(-82.496 -77.676)"/><path d="M138.162,85.882l.312,19.493q-.229.178-.5.352l-.312-19.494q.27-.174.5-.351" transform="translate(-82.496 -77.676)"/><path d="M137.662,86.233l.312,19.494c-.182.117-.378.233-.586.348l-.312-19.494c.208-.114.4-.231.586-.348" transform="translate(-82.496 -77.676)"/><path d="M137.076,86.581l.312,19.494q-.319.175-.678.346L136.4,86.927q.359-.171.678-.346" transform="translate(-82.496 -77.676)"/><path d="M136.4,86.927l.312,19.494c-.247.117-.507.233-.782.347l-.312-19.494c.275-.114.535-.229.782-.347" transform="translate(-82.496 -77.676)"/><path d="M135.616,87.274l.312,19.494q-.436.181-.918.357L134.7,87.631q.482-.175.918-.357" transform="translate(-82.496 -77.676)"/><path d="M134.7,87.631l.312,19.494c-.344.125-.706.247-1.083.367L133.614,88q.567-.18,1.084-.367" transform="translate(-82.496 -77.676)"/><path d="M133.614,88l.313,19.494q-.622.2-1.3.385l-.312-19.494q.68-.187,1.3-.385" transform="translate(-82.496 -77.676)"/><path d="M132.313,88.383l.312,19.494q-.774.212-1.619.411l-.312-19.494q.845-.2,1.619-.411" transform="translate(-82.496 -77.676)"/><path d="M130.694,88.794l.312,19.494q-.981.23-2.053.439l-.312-19.493q1.071-.21,2.053-.44" transform="translate(-82.496 -77.676)"/><path d="M128.641,89.234l.312,19.493q-1.206.236-2.521.441l-.312-19.494q1.314-.2,2.521-.44" transform="translate(-82.496 -77.676)"/><path d="M126.12,89.674l.312,19.494q-1.512.237-3.157.431l-.312-19.494q1.643-.194,3.157-.431" transform="translate(-82.496 -77.676)"/><path d="M122.963,90.105l.312,19.494q-1.818.213-3.782.369l-.312-19.494q1.962-.155,3.782-.369" transform="translate(-82.496 -77.676)"/><path d="M119.181,90.474l.312,19.494q-1.207.1-2.464.167l-.313-19.494q1.257-.071,2.465-.167" transform="translate(-82.496 -77.676)"/><path d="M116.716,90.641l.313,19.494-.37.021q-.582.03-1.162.056l-.312-19.494q.581-.026,1.162-.056l.369-.021" transform="translate(-82.496 -77.676)"/><path d="M115.185,90.718l.312,19.494q-.685.03-1.368.052l-.312-19.494q.683-.021,1.368-.052" transform="translate(-82.496 -77.676)"/><path d="M113.817,90.77l.312,19.494q-.614.02-1.226.033L112.591,90.8q.612-.013,1.226-.033" transform="translate(-82.496 -77.676)"/><path d="M112.591,90.8,112.9,110.3q-.615.013-1.227.021l-.312-19.494q.612-.007,1.227-.021" transform="translate(-82.496 -77.676)"/><path d="M111.364,90.824l.312,19.494q-.618.006-1.233.008l-.312-19.494c.409,0,.821,0,1.233-.008" transform="translate(-82.496 -77.676)"/><path d="M110.131,90.832l.312,19.494q-.638,0-1.269-.006l-.312-19.494q.632.006,1.269.006" transform="translate(-82.496 -77.676)"/><path d="M108.862,90.826l.312,19.494q-.65-.006-1.294-.019l-.312-19.494q.644.014,1.294.019" transform="translate(-82.496 -77.676)"/><path d="M107.568,90.807l.312,19.494q-.678-.015-1.349-.036l-.312-19.494c.447.015.9.026,1.349.036" transform="translate(-82.496 -77.676)"/><path d="M106.219,90.771l.312,19.494q-.684-.022-1.358-.052l-.312-19.494q.675.03,1.358.052" transform="translate(-82.496 -77.676)"/><path d="M104.861,90.719l.312,19.494q-.7-.031-1.381-.071l-.312-19.494q.685.039,1.381.071" transform="translate(-82.496 -77.676)"/><path d="M103.48,90.648l.312,19.494q-.7-.041-1.395-.09l-.313-19.493q.691.048,1.4.089" transform="translate(-82.496 -77.676)"/><path d="M102.084,90.559l.313,19.493q-.71-.05-1.4-.109l-.312-19.494q.693.058,1.4.11" transform="translate(-82.496 -77.676)"/><path d="M100.683,90.449,101,109.943q-.722-.061-1.424-.133l-.312-19.494q.7.072,1.424.133" transform="translate(-82.496 -77.676)"/><path d="M99.259,90.316l.312,19.494q-.75-.075-1.476-.162l-.313-19.493q.728.085,1.477.161" transform="translate(-82.496 -77.676)"/><path d="M97.782,90.155l.313,19.493q-.779-.091-1.528-.2l-.312-19.493c.5.069,1.009.134,1.527.2" transform="translate(-82.496 -77.676)"/><path d="M96.255,89.959l.312,19.493q-.826-.114-1.614-.242l-.312-19.494q.787.128,1.614.243" transform="translate(-82.496 -77.676)"/><path d="M94.641,89.716l.312,19.494q-.914-.148-1.77-.314L92.871,89.4q.856.165,1.77.314" transform="translate(-82.496 -77.676)"/><path d="M92.871,89.4l.312,19.494c-.719-.14-1.408-.288-2.061-.445l-.313-19.494c.654.157,1.343.305,2.062.445" transform="translate(-82.496 -77.676)"/><path d="M90.809,88.957l.313,19.494c-3.538-.85-6.064-1.951-7.059-3.224l-.312-19.494c.995,1.273,3.521,2.374,7.058,3.224" transform="translate(-82.496 -77.676)"/></g></g></g><path d="M83.751,85.733c-2.764-3.538,7.347-7.07,22.583-7.887s29.84,1.389,32.6,4.928-7.347,7.07-22.592,7.888S86.515,89.272,83.751,85.733Zm54.195-2.906c-2.667-3.413-16.765-5.551-31.442-4.764s-24.435,4.2-21.769,7.618c1.294,1.655,5.286,3.062,11.236,3.961a103.121,103.121,0,0,0,20.206.8c14.678-.787,24.435-4.2,21.769-7.618" transform="translate(-82.496 -77.676)"/></g><line y1="35.324" x2="58.009" y2="35.324" style="fill:none;stroke:#000;stroke-miterlimit:10;stroke-width:0.5px"/><text transform="translate(21.129 42.876)" style="font-size:5px;font-family:MyriadPro-Regular, Myriad Pro">27cm</text></svg>